<svg xmlns="http://www.w3.org/2000/svg" xmlns:xlink="http://www.w3.org/1999/xlink" width="1010" zoomAndPan="magnify" viewBox="0 0 757.5 532.499984" height="710" preserveAspectRatio="xMidYMid meet" version="1.0"><defs><clipPath id="0d76fa156d"><path d="M 1.464844 12 L 753.757812 12 L 753.757812 520 L 1.464844 520 Z M 1.464844 12 " clip-rule="nonzero"/></clipPath><clipPath id="32496224ea"><path d="M 46 56.195312 L 126.746094 56.195312 L 126.746094 221 L 46 221 Z M 46 56.195312 " clip-rule="nonzero"/></clipPath><clipPath id="60aacd0738"><path d="M 126.261719 128.15625 L 108.726562 220.496094 C 108.324219 220.578125 107.871094 220.640625 107.464844 220.675781 C 104.863281 220.898438 102.117188 220.351562 99.804688 219.640625 C 94.390625 217.894531 91.417969 213.335938 89.785156 208.082031 L 90.351562 208.035156 C 93.097656 207.792969 95.730469 207.242188 98.171875 206.386719 C 101.519531 205.367188 100.710938 200.292969 97.1875 200.371094 C 91.609375 200.597656 85.628906 198.480469 81.816406 194.699219 C 80.070312 192.871094 78.550781 190.367188 77.871094 187.960938 C 76.613281 183.757812 77.289062 180.847656 76.902344 177.03125 C 76.628906 170.617188 78.4375 165.039062 81.527344 158.832031 C 81.542969 158.785156 81.558594 158.734375 81.574219 158.6875 C 85.242188 159.089844 88.945312 159.125 92.546875 158.882812 L 92.613281 158.882812 C 94.082031 158.75 94.503906 156.570312 93.128906 155.921875 C 81.785156 149.992188 71.457031 143.023438 63.199219 133.730469 C 52.191406 121.171875 45.046875 106.171875 46.824219 90.300781 C 48.019531 80.40625 53.886719 71.839844 61.273438 65.214844 C 65.914062 61.304688 72.25 56.9375 78.308594 56.40625 C 79.957031 56.261719 81.558594 56.40625 83.109375 56.890625 C 86.277344 58.3125 88.347656 62.371094 90.269531 66.101562 C 95.636719 77.433594 100.0625 91.058594 106.675781 102.503906 C 111.714844 111.992188 118.40625 120.6875 126.261719 128.136719 Z M 126.261719 128.15625 " clip-rule="nonzero"/></clipPath><clipPath id="9258974b45"><path d="M 487.164062 93.371094 L 709 93.371094 L 709 322 L 487.164062 322 Z M 487.164062 93.371094 " clip-rule="nonzero"/></clipPath><clipPath id="1bb3424d4d"><path d="M 703.496094 202.246094 C 709.394531 208.730469 709.25 216.390625 708.039062 225.28125 C 706.550781 234.753906 699.972656 242.429688 692.085938 248.523438 C 680.789062 257.285156 668.3125 261.90625 654.121094 263.167969 C 650.289062 263.507812 646.3125 263.585938 642.226562 263.476562 C 642.113281 263.476562 642 263.441406 641.886719 263.476562 C 641.09375 263.539062 640.316406 263.992188 639.882812 264.734375 C 639.171875 265.964844 639.589844 267.53125 640.804688 268.242188 C 646.039062 271.3125 651.726562 273.480469 657.691406 274.804688 C 659.859375 283.324219 658.855469 291.597656 653.636719 298.886719 C 647.960938 306.695312 639.414062 313.5 629.667969 316.976562 C 627.808594 317.636719 618.820312 321.195312 607.105469 321.566406 C 582.472656 322.308594 534.90625 309.589844 505.785156 267.953125 C 500.125 259.839844 492.546875 246.921875 487.570312 228.867188 C 492.707031 228.546875 496.601562 227.367188 499.722656 225.878906 C 503.425781 224.066406 506.1875 221.917969 508.773438 219.460938 C 521.445312 207.355469 526.453125 192.339844 537.234375 181.285156 C 541.824219 176.597656 546.835938 172.523438 552.203125 169.4375 C 557.890625 166.1875 563.984375 164.019531 570.382812 163.457031 C 574.878906 163.050781 579.5 163.421875 584.300781 164.75 C 590.183594 166.136719 599.21875 168.273438 607.089844 167.578125 C 608.867188 167.414062 610.613281 167.109375 612.261719 166.625 C 613.859375 166.234375 616.234375 165.492188 617.691406 164.78125 C 632.171875 158.832031 641.496094 144.414062 645.070312 129.769531 C 647.703125 120.671875 648.707031 111.636719 653.117188 104.523438 C 657.273438 98.089844 664.738281 94.535156 672.464844 93.855469 C 675.097656 93.628906 677.78125 93.726562 680.335938 94.164062 C 696.464844 97.054688 704.546875 114.59375 707.375 129.429688 C 711.1875 147.808594 705.289062 163.828125 691.828125 177.113281 C 670.589844 197.933594 640.851562 207.0625 611.082031 209.972656 C 608.398438 210.214844 608.363281 214.175781 611.082031 214.484375 C 619.679688 215.226562 628.40625 215.242188 637.117188 214.484375 C 649.628906 213.382812 662.089844 210.636719 674.128906 206.078125 C 680.902344 203.410156 687.496094 200.144531 693.765625 196.152344 C 697.824219 197.835938 701.378906 199.96875 703.480469 202.296875 Z M 703.496094 202.246094 " clip-rule="nonzero"/></clipPath><clipPath id="1930ed27e7"><path d="M 442 146 L 530.804688 146 L 530.804688 469.976562 L 442 469.976562 Z M 442 146 " clip-rule="nonzero"/></clipPath><clipPath id="00862ff0fc"><path d="M 530.269531 314.277344 L 510.179688 469.65625 L 405.789062 426.871094 L 458.136719 136.835938 L 521.6875 179.101562 C 520.328125 181.269531 519.054688 183.449219 517.777344 185.566406 C 513.945312 191.933594 509.871094 198.367188 504.605469 203.605469 C 503.070312 205.011719 500.707031 207.195312 498.945312 208.261719 C 492.402344 212.933594 484.351562 215.582031 476.140625 216.308594 C 474.1875 216.488281 472.230469 216.535156 470.273438 216.503906 C 469.582031 216.632812 469.160156 217.3125 469.289062 217.976562 C 474.300781 241.945312 484.03125 265.027344 498.964844 284.859375 C 507.578125 296.335938 518.246094 306.242188 530.269531 314.277344 Z M 530.269531 314.277344 " clip-rule="nonzero"/></clipPath><clipPath id="a6f18854d6"><path d="M 257 120 L 379 120 L 379 203 L 257 203 Z M 257 120 " clip-rule="nonzero"/></clipPath><clipPath id="de62783a7f"><path d="M 428.351562 125.859375 L 375.226562 420.050781 L 99.515625 403.335938 L 153.15625 120.378906 L 217.449219 121.65625 C 215.625 128.753906 215.316406 136.042969 215.21875 142.960938 C 215.1875 147.648438 215.476562 152.335938 216.15625 156.972656 C 217.464844 166.300781 220.148438 175.382812 224.027344 183.96875 C 225.03125 186.230469 226.855469 188.25 229.070312 189.625 C 247.6875 202.214844 270.363281 207.742188 292.410156 205.789062 C 306.699219 204.527344 320.710938 200.128906 333.203125 192.515625 C 336.371094 190.59375 338.601562 187.199219 338.859375 183.191406 C 339.246094 176.46875 339.507812 169.710938 339.636719 162.90625 C 339.78125 156.117188 339.8125 149.265625 340.074219 142.441406 C 340.347656 136.285156 340.445312 129.996094 341.996094 124.144531 Z M 428.351562 125.859375 " clip-rule="nonzero"/></clipPath></defs><path fill="#fff7f9" d="M 729.144531 144.140625 C 731.457031 119.847656 724.054688 93.53125 704.222656 77.789062 C 694.058594 70.128906 681.09375 67.007812 668.519531 68.125 C 653.539062 69.449219 639.058594 76.820312 630.539062 89.75 C 626.546875 95.761719 624.382812 102.195312 622.863281 107.804688 C 618.789062 121.851562 619.046875 142.054688 601.449219 144.511719 C 595.257812 145.0625 584.347656 141.957031 572.90625 142.960938 C 571.773438 143.058594 570.675781 143.1875 569.558594 143.398438 C 557.277344 145.253906 546.269531 150.929688 537.300781 159.222656 C 537.234375 159.253906 537.171875 159.316406 537.136719 159.398438 L 452.382812 102.90625 L 452.191406 102.792969 C 451.945312 102.648438 451.703125 102.472656 451.445312 102.359375 C 451.332031 102.277344 451.1875 102.230469 451.042969 102.148438 C 450.847656 102.097656 450.6875 102.003906 450.523438 101.921875 C 450.332031 101.824219 450.167969 101.792969 450.007812 101.742188 C 449.652344 101.613281 449.28125 101.515625 448.910156 101.453125 C 448.601562 101.386719 448.3125 101.324219 448.035156 101.308594 C 447.777344 101.257812 447.503906 101.242188 447.261719 101.242188 L 447.195312 101.242188 C 447.195312 101.242188 349.769531 99.285156 349.769531 99.285156 C 343.5 95.535156 334.335938 90.914062 322.617188 87.746094 C 305.695312 83.125 292.085938 83.851562 284.199219 84.320312 C 263.382812 85.597656 246.445312 91.527344 234.644531 97.007812 L 140.484375 95.117188 C 140.113281 95.117188 139.773438 95.117188 139.433594 95.132812 C 135.3125 95.503906 131.839844 98.558594 131.078125 102.746094 L 130.191406 107.351562 C 127.8125 103.199219 125.730469 98.800781 123.933594 94.195312 C 120.605469 85.917969 117.664062 75.800781 114.996094 66.960938 C 112.71875 59.703125 110.535156 52.800781 105.980469 45.898438 C 98.59375 34.40625 86.792969 30.382812 74.882812 31.433594 C 67.707031 32.0625 60.515625 34.550781 54.210938 38.335938 C 36.59375 48.648438 22.664062 66.78125 20.480469 87.488281 C 17.925781 111.621094 32.199219 135.671875 51.496094 147.90625 C 54.761719 150.054688 58.171875 151.882812 61.695312 153.417969 C 58.65625 155.890625 56.003906 159.058594 54.097656 162.726562 C 51.785156 166.929688 50.542969 171.859375 50.382812 176.839844 C 49.75 189.722656 58.382812 199.675781 69.628906 204.25 C 73.492188 206.191406 77.808594 207.4375 82.15625 207.96875 C 81.75 209.117188 81.429688 210.28125 81.203125 211.507812 C 78.339844 226.542969 91.125 238.371094 105.074219 239.8125 L 71.699219 415.894531 C 71.699219 415.894531 71.667969 416.074219 71.648438 416.171875 C 71.472656 417.027344 71.40625 417.867188 71.503906 418.691406 C 71.503906 418.917969 71.503906 419.128906 71.585938 419.371094 C 71.632812 419.597656 71.648438 419.839844 71.714844 420.066406 C 71.761719 420.257812 71.828125 420.484375 71.875 420.679688 C 71.941406 420.875 72.003906 421.035156 72.054688 421.230469 C 72.117188 421.390625 72.199219 421.585938 72.28125 421.730469 C 72.570312 422.394531 72.910156 422.992188 73.378906 423.574219 C 73.378906 423.589844 73.378906 423.671875 73.429688 423.6875 C 73.460938 423.75 73.507812 423.800781 73.558594 423.863281 C 73.605469 423.914062 73.65625 423.992188 73.734375 424.058594 C 73.878906 424.21875 74.011719 424.382812 74.140625 424.496094 C 74.285156 424.65625 74.429688 424.785156 74.609375 424.929688 C 74.785156 425.078125 74.964844 425.269531 75.15625 425.398438 C 75.738281 425.820312 76.386719 426.238281 77.097656 426.5 C 77.339844 426.660156 77.597656 426.726562 77.871094 426.820312 L 78.082031 426.886719 L 229.699219 477.65625 C 230.316406 477.851562 230.976562 477.996094 231.65625 478.074219 L 231.929688 478.074219 C 231.929688 478.074219 522.367188 501.253906 522.367188 501.253906 C 522.429688 501.253906 522.480469 501.253906 522.574219 501.253906 L 522.671875 501.253906 C 522.914062 501.253906 523.15625 501.269531 523.402344 501.253906 C 523.511719 501.253906 523.644531 501.253906 523.789062 501.253906 C 523.902344 501.253906 523.980469 501.207031 524.078125 501.207031 L 524.304688 501.207031 C 524.515625 501.171875 524.710938 501.15625 524.917969 501.109375 C 525.097656 501.078125 525.308594 501.058594 525.5 500.996094 C 525.855469 500.898438 526.210938 500.800781 526.535156 500.609375 C 526.761719 500.542969 526.957031 500.476562 527.167969 500.367188 C 527.375 500.253906 527.617188 500.140625 527.8125 500.011719 C 528.023438 499.898438 528.199219 499.800781 528.378906 499.636719 C 528.636719 499.507812 528.878906 499.296875 529.105469 499.121094 C 529.445312 498.847656 529.785156 498.523438 530.089844 498.152344 C 530.285156 497.972656 530.445312 497.761719 530.59375 497.570312 C 530.882812 497.230469 531.140625 496.84375 531.351562 496.40625 C 531.480469 496.148438 531.628906 495.886719 531.738281 495.597656 C 531.738281 495.597656 531.746094 495.582031 531.757812 495.546875 C 531.871094 495.289062 531.984375 495.03125 532.046875 494.773438 C 532.144531 494.464844 532.226562 494.191406 532.289062 493.917969 C 532.320312 493.707031 532.371094 493.496094 532.386719 493.269531 C 532.402344 493.222656 532.386719 493.171875 532.417969 493.109375 L 532.46875 492.65625 L 553.945312 327.0625 C 567.363281 332.71875 581.699219 336.273438 596.195312 337.421875 C 602.644531 337.890625 609.382812 337.957031 616.105469 337.375 C 629.652344 336.175781 643.128906 332.296875 654.136719 323.714844 C 669.492188 312.09375 677.925781 293.683594 671.640625 276.308594 C 673.5 276.308594 675.359375 276.226562 677.214844 276.066406 C 682.90625 275.566406 688.53125 274.289062 693.847656 272.347656 C 706.566406 267.773438 718.625 259.917969 726.542969 248.234375 C 735.027344 235.316406 737.855469 220.09375 732.8125 204.625 C 729.273438 193.90625 720.5 185.90625 710.25 182.917969 C 720.222656 172.523438 727.773438 158.734375 729.195312 144.222656 Z M 239.480469 131.304688 C 239.367188 125.375 240.722656 120.171875 243.84375 115.902344 C 245.621094 113.445312 248.027344 111.28125 251.050781 109.519531 C 257.757812 105.347656 266.128906 103.003906 274 101.597656 C 277.316406 101.03125 280.675781 100.597656 284.003906 100.304688 C 291.359375 99.660156 298.777344 99.609375 306.246094 100.03125 C 311.304688 100.304688 315.28125 100.53125 320.660156 101.484375 C 328.144531 102.828125 334.191406 104.832031 338.457031 106.527344 C 337.601562 106.640625 336.921875 106.820312 336.4375 106.996094 C 331.621094 108.582031 325.074219 114.125 316.523438 159.914062 C 315.488281 165.394531 314.761719 169.792969 314.359375 172.199219 C 313.03125 172.699219 311.757812 173.152344 310.429688 173.542969 C 304.660156 175.351562 298.714844 176.515625 292.683594 177.050781 C 276.925781 178.4375 260.78125 175.480469 246.734375 168.175781 C 241.515625 156.746094 239.347656 143.574219 239.480469 131.304688 Z M 99.804688 219.65625 C 94.390625 217.910156 91.417969 213.351562 89.785156 208.097656 L 90.351562 208.050781 C 93.097656 207.808594 95.730469 207.257812 98.171875 206.402344 C 101.519531 205.382812 100.710938 200.308594 97.1875 200.390625 C 91.609375 200.617188 85.628906 198.496094 81.816406 194.714844 C 80.070312 192.890625 78.550781 190.382812 77.871094 187.976562 C 76.613281 183.773438 77.289062 180.863281 76.902344 177.050781 C 76.628906 170.632812 78.4375 165.054688 81.523438 158.847656 C 81.542969 158.800781 81.558594 158.753906 81.574219 158.703125 C 85.242188 159.109375 88.945312 159.140625 92.546875 158.898438 L 92.613281 158.898438 C 94.082031 158.769531 94.503906 156.585938 93.128906 155.941406 C 81.785156 150.007812 71.457031 143.042969 63.199219 133.746094 C 52.191406 121.1875 45.046875 106.1875 46.824219 90.316406 C 48.019531 80.425781 53.886719 71.859375 61.273438 65.230469 C 65.914062 61.320312 72.25 56.953125 78.308594 56.421875 C 79.957031 56.277344 81.558594 56.421875 83.109375 56.90625 C 86.277344 58.328125 88.347656 62.386719 90.269531 66.121094 C 95.636719 77.449219 100.0625 91.074219 106.675781 102.519531 C 111.714844 112.007812 118.40625 120.703125 126.261719 128.15625 L 108.726562 220.496094 C 108.324219 220.578125 107.871094 220.640625 107.464844 220.675781 C 104.863281 220.898438 102.117188 220.351562 99.804688 219.640625 Z M 153.15625 120.378906 L 217.449219 121.65625 C 215.625 128.753906 215.316406 136.042969 215.21875 142.960938 C 215.1875 147.648438 215.476562 152.335938 216.15625 156.972656 C 217.464844 166.300781 220.148438 175.382812 224.027344 183.96875 C 225.03125 186.230469 226.855469 188.25 229.070312 189.625 C 247.6875 202.214844 270.363281 207.742188 292.410156 205.789062 C 306.699219 204.527344 320.710938 200.128906 333.203125 192.515625 C 336.371094 190.59375 338.601562 187.199219 338.859375 183.191406 C 339.246094 176.46875 339.507812 169.710938 339.636719 162.90625 C 339.78125 156.117188 339.8125 149.265625 340.074219 142.441406 C 340.347656 136.285156 340.445312 129.996094 341.996094 124.144531 L 428.351562 125.859375 L 375.226562 420.050781 L 99.515625 403.335938 Z M 224.546875 454.816406 L 153.253906 433.546875 L 384.535156 450.855469 L 438.082031 473.355469 Z M 510.179688 469.640625 L 405.789062 426.855469 L 458.136719 136.816406 L 521.6875 179.085938 C 520.328125 181.25 519.054688 183.433594 517.777344 185.550781 C 513.945312 191.917969 509.871094 198.351562 504.605469 203.589844 C 503.070312 204.996094 500.707031 207.175781 498.945312 208.246094 C 492.402344 212.914062 484.351562 215.566406 476.140625 216.292969 C 474.1875 216.472656 472.230469 216.519531 470.273438 216.488281 C 469.582031 216.617188 469.160156 217.296875 469.289062 217.957031 C 474.300781 241.929688 484.03125 265.011719 498.964844 284.84375 C 507.578125 296.320312 518.246094 306.226562 530.269531 314.261719 Z M 691.84375 177.082031 C 670.605469 197.898438 640.867188 207.03125 611.097656 209.941406 C 608.414062 210.183594 608.382812 214.144531 611.097656 214.449219 C 619.695312 215.195312 628.421875 215.210938 637.132812 214.449219 C 649.644531 213.351562 662.105469 210.605469 674.144531 206.046875 C 680.917969 203.378906 687.511719 200.113281 693.78125 196.121094 C 697.839844 197.804688 701.394531 199.9375 703.496094 202.265625 C 709.394531 208.746094 709.25 216.40625 708.039062 225.296875 C 706.550781 234.769531 699.972656 242.445312 692.085938 248.539062 C 680.789062 257.300781 668.3125 261.921875 654.121094 263.183594 C 650.289062 263.523438 646.3125 263.605469 642.226562 263.492188 C 642.113281 263.492188 642 263.457031 641.886719 263.492188 C 641.09375 263.554688 640.316406 264.007812 639.882812 264.75 C 639.171875 265.980469 639.589844 267.546875 640.804688 268.257812 C 646.039062 271.328125 651.730469 273.496094 657.691406 274.820312 C 659.859375 283.339844 658.855469 291.613281 653.636719 298.90625 C 647.960938 306.710938 639.414062 313.515625 629.667969 316.992188 C 627.808594 317.65625 618.820312 321.210938 607.105469 321.582031 C 582.472656 322.324219 534.90625 309.605469 505.785156 267.96875 C 500.125 259.855469 492.546875 246.9375 487.570312 228.886719 C 492.707031 228.5625 496.605469 227.382812 499.722656 225.894531 C 503.425781 224.085938 506.1875 221.933594 508.773438 219.476562 C 521.445312 207.371094 526.457031 192.355469 537.234375 181.300781 C 541.824219 176.613281 546.835938 172.539062 552.203125 169.453125 C 557.890625 166.203125 563.984375 164.039062 570.382812 163.472656 C 574.878906 163.066406 579.5 163.4375 584.300781 164.765625 C 590.183594 166.15625 599.21875 168.289062 607.089844 167.59375 C 608.867188 167.433594 610.613281 167.125 612.261719 166.640625 C 613.859375 166.25 616.234375 165.507812 617.691406 164.796875 C 632.171875 158.847656 641.496094 144.429688 645.070312 129.785156 C 647.703125 120.6875 648.707031 111.652344 653.117188 104.539062 C 657.273438 98.105469 664.738281 94.550781 672.464844 93.871094 C 675.097656 93.644531 677.78125 93.742188 680.335938 94.179688 C 696.464844 97.074219 704.546875 114.609375 707.375 129.449219 C 711.1875 147.824219 705.289062 163.84375 691.828125 177.128906 Z M 691.84375 177.082031 " fill-opacity="1" fill-rule="nonzero"/><g clip-path="url(#0d76fa156d)"><path fill="#8b0414" d="M 715.875 63.097656 C 715.746094 63 715.632812 62.933594 715.503906 62.839844 C 701.960938 52.589844 684.683594 47.839844 666.855469 49.421875 C 645.117188 51.347656 626.160156 62.257812 614.847656 79.375 C 609.15625 88.019531 606.359375 96.8125 604.761719 102.761719 C 603.726562 106.316406 602.984375 109.859375 602.289062 113.300781 C 601.464844 117.148438 600.171875 123.402344 598.847656 125.746094 C 597.457031 125.648438 595.289062 125.40625 593.609375 125.179688 C 587.789062 124.484375 579.789062 123.515625 571.242188 124.277344 C 569.65625 124.421875 568.105469 124.597656 566.601562 124.839844 C 555.855469 126.488281 545.605469 130.402344 536.347656 136.300781 L 462.761719 87.277344 C 462.550781 87.132812 462.324219 86.96875 462.113281 86.855469 C 461.628906 86.566406 461.175781 86.257812 460.691406 86.03125 C 459.851562 85.53125 459.125 85.207031 458.589844 84.964844 L 457.976562 84.707031 C 457.199219 84.367188 456.425781 84.078125 455.648438 83.820312 C 454.792969 83.558594 453.902344 83.285156 452.949219 83.074219 C 451.867188 82.832031 450.785156 82.671875 449.667969 82.574219 C 449.378906 82.558594 449.054688 82.542969 448.730469 82.492188 C 448.34375 82.460938 447.9375 82.445312 447.519531 82.445312 L 353.921875 80.570312 C 350.691406 78.96875 346.214844 76.882812 340.71875 74.816406 C 316.460938 65.683594 295.15625 65.199219 284.75 65.503906 C 260.019531 66.265625 240.820312 73.101562 229.585938 78.0625 L 140.824219 76.320312 C 139.804688 76.300781 138.757812 76.320312 137.738281 76.414062 L 137.496094 76.414062 C 136.21875 72.503906 134.988281 68.382812 133.761719 64.339844 C 133.761719 64.339844 132.855469 61.351562 132.855469 61.253906 C 130.398438 53.464844 127.636719 44.6875 121.625 35.585938 C 111.085938 19.261719 93.421875 10.90625 73.1875 12.683594 C 63.328125 13.554688 53.453125 16.820312 44.5625 22.121094 C 20.449219 36.265625 4.433594 59.898438 1.765625 85.402344 C -1.144531 112.800781 12.042969 141.523438 34.976562 159.1875 C 32.925781 164.488281 31.761719 170.179688 31.550781 176.046875 C 30.695312 195.476562 42.511719 213.125 61.792969 221.253906 C 61.984375 221.367188 62.195312 221.464844 62.390625 221.5625 C 63.375 228.140625 66.007812 234.429688 70.132812 240.003906 C 73.71875 244.804688 78.324219 248.863281 83.578125 251.964844 L 53.226562 412.097656 C 53.128906 412.566406 53.046875 413.003906 53.015625 413.339844 C 52.644531 415.539062 52.53125 417.722656 52.722656 419.886719 C 52.757812 420.792969 52.886719 421.664062 53.03125 422.539062 C 53.113281 422.910156 53.210938 423.476562 53.355469 424.121094 C 53.5 424.816406 53.679688 425.382812 53.824219 425.882812 C 54.015625 426.613281 54.277344 427.339844 54.566406 428.097656 C 54.777344 428.632812 54.972656 429.070312 55.117188 429.34375 C 55.796875 430.945312 56.667969 432.464844 57.6875 433.886719 C 57.976562 434.339844 58.316406 434.789062 58.671875 435.226562 C 58.671875 435.226562 58.929688 435.566406 59.074219 435.746094 C 59.171875 435.824219 59.59375 436.359375 59.691406 436.472656 C 60.011719 436.828125 60.289062 437.152344 60.59375 437.441406 C 61.195312 438.089844 61.839844 438.703125 62.488281 439.203125 C 62.875 439.558594 63.292969 439.882812 63.761719 440.253906 C 65.476562 441.53125 67.304688 442.644531 69.210938 443.503906 C 70.210938 443.957031 71.101562 444.292969 71.796875 444.503906 C 71.894531 444.539062 223.832031 495.417969 223.898438 495.4375 C 225.839844 496.066406 227.808594 496.503906 229.71875 496.679688 C 229.878906 496.710938 520.945312 519.921875 520.945312 519.921875 C 521.394531 519.957031 521.863281 519.972656 522.316406 519.957031 C 522.820312 519.972656 523.269531 519.988281 523.691406 519.957031 C 524.257812 519.921875 524.839844 519.90625 525.386719 519.859375 C 525.710938 519.828125 526.035156 519.792969 526.359375 519.746094 C 526.90625 519.695312 527.410156 519.632812 527.972656 519.535156 C 528.378906 519.472656 528.796875 519.390625 529.21875 519.292969 C 529.574219 519.195312 530.027344 519.113281 530.558594 518.953125 C 531.175781 518.792969 532.191406 518.46875 533.40625 517.96875 C 534.019531 517.757812 534.617188 517.464844 535.183594 517.222656 C 535.863281 516.917969 536.507812 516.5625 537.121094 516.191406 C 537.769531 515.832031 538.382812 515.460938 538.980469 515.027344 C 539.902344 514.425781 540.566406 513.863281 540.96875 513.539062 C 542.035156 512.664062 543.054688 511.664062 544.023438 510.613281 C 544.460938 510.113281 544.894531 509.609375 545.300781 509.0625 C 546.222656 507.882812 547.0625 506.636719 547.757812 505.277344 C 548.304688 504.324219 548.742188 503.371094 549.128906 502.386719 C 549.355469 501.867188 549.679688 501.0625 549.972656 500.058594 C 550.199219 499.332031 550.34375 498.667969 550.488281 498.152344 C 550.585938 497.683594 550.683594 497.179688 550.761719 496.710938 C 550.777344 496.648438 550.761719 496.566406 550.796875 496.503906 C 550.859375 496.164062 550.910156 495.792969 550.972656 495.417969 C 550.972656 495.402344 569.558594 351.96875 569.558594 351.96875 C 577.820312 354.039062 586.175781 355.414062 594.628906 356.105469 L 594.789062 356.105469 C 602.804688 356.6875 610.515625 356.640625 617.707031 355.992188 C 636.714844 354.3125 652.796875 348.414062 665.515625 338.539062 C 681.578125 326.285156 691.003906 309.554688 692.3125 292.359375 C 694.960938 291.695312 697.597656 290.871094 700.152344 289.933594 C 718.074219 283.484375 732.554688 272.671875 742.011719 258.691406 C 742.074219 258.609375 742.109375 258.527344 742.171875 258.464844 C 754.195312 240.136719 757.171875 218.929688 750.558594 198.660156 C 747.894531 190.59375 743.320312 183.402344 737.40625 177.648438 C 743.15625 167.59375 746.730469 156.78125 747.796875 145.933594 C 750.996094 112.445312 739.035156 81.476562 715.875 63.097656 Z M 729.144531 144.140625 C 727.722656 158.671875 720.191406 172.457031 710.203125 182.835938 C 720.449219 185.824219 729.226562 193.828125 732.765625 204.542969 C 737.824219 220.011719 734.980469 235.238281 726.496094 248.152344 C 718.589844 259.839844 706.519531 267.675781 693.796875 272.269531 C 688.464844 274.222656 682.839844 275.484375 677.167969 275.984375 C 675.308594 276.148438 673.449219 276.226562 671.59375 276.226562 C 677.878906 293.585938 669.425781 312.011719 654.089844 323.636719 C 643.082031 332.234375 629.601562 336.097656 616.058594 337.292969 C 609.335938 337.890625 602.59375 337.828125 596.148438 337.339844 C 581.648438 336.195312 567.328125 332.636719 553.898438 326.980469 L 532.417969 492.574219 L 532.371094 493.027344 C 532.371094 493.027344 532.371094 493.140625 532.339844 493.1875 C 532.304688 493.414062 532.257812 493.625 532.242188 493.835938 C 532.175781 494.109375 532.078125 494.402344 532 494.675781 C 531.933594 494.949219 531.820312 495.210938 531.707031 495.46875 C 531.707031 495.46875 531.703125 495.484375 531.691406 495.515625 C 531.578125 495.792969 531.449219 496.066406 531.304688 496.324219 C 531.09375 496.746094 530.835938 497.132812 530.542969 497.488281 C 530.398438 497.683594 530.238281 497.910156 530.042969 498.070312 C 529.734375 498.441406 529.398438 498.765625 529.058594 499.039062 C 528.816406 499.21875 528.589844 499.429688 528.328125 499.558594 C 528.167969 499.703125 527.992188 499.816406 527.765625 499.929688 C 527.570312 500.058594 527.328125 500.171875 527.117188 500.285156 C 526.90625 500.398438 526.699219 500.460938 526.488281 500.527344 C 526.164062 500.722656 525.808594 500.816406 525.453125 500.914062 C 525.257812 500.980469 525.050781 500.996094 524.871094 501.027344 C 524.675781 501.078125 524.46875 501.09375 524.257812 501.109375 L 524.03125 501.109375 C 523.933594 501.140625 523.851562 501.171875 523.738281 501.171875 C 523.609375 501.171875 523.464844 501.171875 523.351562 501.171875 C 523.109375 501.191406 522.867188 501.171875 522.625 501.171875 L 522.527344 501.171875 C 522.429688 501.171875 522.398438 501.171875 522.316406 501.171875 L 231.882812 478.011719 L 231.609375 478.011719 C 230.945312 477.914062 230.265625 477.769531 229.652344 477.574219 L 78.035156 426.804688 L 77.824219 426.742188 C 77.550781 426.660156 77.289062 426.578125 77.046875 426.417969 C 76.335938 426.160156 75.691406 425.738281 75.109375 425.320312 C 74.914062 425.171875 74.738281 424.996094 74.558594 424.851562 C 74.382812 424.703125 74.234375 424.574219 74.089844 424.414062 C 73.960938 424.285156 73.832031 424.140625 73.6875 423.976562 C 73.605469 423.914062 73.558594 423.832031 73.507812 423.78125 C 73.460938 423.71875 73.410156 423.6875 73.378906 423.605469 C 73.332031 423.589844 73.332031 423.523438 73.332031 423.492188 C 72.878906 422.925781 72.523438 422.3125 72.230469 421.648438 C 72.152344 421.503906 72.070312 421.292969 72.003906 421.148438 C 71.941406 420.953125 71.875 420.792969 71.828125 420.597656 C 71.761719 420.40625 71.699219 420.179688 71.667969 419.984375 C 71.601562 419.757812 71.585938 419.515625 71.535156 419.289062 C 71.472656 419.046875 71.457031 418.835938 71.457031 418.609375 C 71.359375 417.800781 71.425781 416.945312 71.601562 416.089844 C 71.601562 415.992188 71.601562 415.863281 71.648438 415.816406 L 105.023438 239.730469 C 91.078125 238.308594 78.292969 226.460938 81.152344 211.429688 C 81.378906 210.199219 81.71875 209.035156 82.105469 207.886719 C 77.757812 207.355469 73.445312 206.109375 69.582031 204.171875 C 58.332031 199.597656 49.6875 189.640625 50.332031 176.757812 C 50.476562 171.78125 51.738281 166.851562 54.050781 162.648438 C 55.957031 158.976562 58.605469 155.808594 61.644531 153.335938 C 58.121094 151.800781 54.710938 149.976562 51.449219 147.824219 C 32.148438 135.589844 17.878906 111.539062 20.433594 87.40625 C 22.597656 66.703125 36.53125 48.566406 54.164062 38.253906 C 60.464844 34.472656 67.65625 31.980469 74.835938 31.351562 C 86.746094 30.300781 98.542969 34.324219 105.929688 45.816406 C 110.503906 52.71875 112.671875 59.621094 114.949219 66.878906 C 117.617188 75.71875 120.558594 85.824219 123.886719 94.113281 C 125.679688 98.738281 127.78125 103.117188 130.140625 107.269531 L 131.03125 102.664062 C 131.789062 98.480469 135.265625 95.421875 139.386719 95.050781 C 139.726562 95.019531 140.066406 95.019531 140.4375 95.035156 L 234.597656 96.925781 C 246.394531 91.449219 263.335938 85.515625 284.152344 84.238281 C 292.054688 83.769531 305.648438 83.042969 322.570312 87.664062 C 334.285156 90.832031 343.449219 95.457031 349.722656 99.207031 L 447.148438 101.179688 L 447.210938 101.179688 C 447.453125 101.179688 447.730469 101.179688 447.988281 101.242188 C 448.261719 101.257812 448.570312 101.324219 448.859375 101.386719 C 449.230469 101.453125 449.605469 101.550781 449.960938 101.679688 C 450.121094 101.726562 450.28125 101.757812 450.476562 101.855469 C 450.636719 101.9375 450.816406 102.035156 450.992188 102.082031 C 451.140625 102.164062 451.285156 102.210938 451.398438 102.292969 C 451.65625 102.40625 451.898438 102.585938 452.140625 102.730469 L 452.335938 102.84375 L 537.089844 159.332031 C 537.089844 159.332031 537.1875 159.1875 537.25 159.15625 C 546.238281 150.878906 557.242188 145.191406 569.511719 143.332031 C 570.625 143.121094 571.726562 142.992188 572.855469 142.894531 C 584.300781 141.878906 595.207031 144.996094 601.398438 144.449219 C 618.984375 141.992188 618.726562 121.785156 622.8125 107.742188 C 624.347656 102.132812 626.5 95.699219 630.492188 89.6875 C 639.007812 76.769531 653.488281 69.382812 668.472656 68.058594 C 681.046875 66.945312 694.007812 70.078125 704.175781 77.726562 C 724.003906 93.46875 731.40625 119.78125 729.097656 144.074219 Z M 729.144531 144.140625 " fill-opacity="1" fill-rule="nonzero"/></g><path fill="#fec16f" d="M 126.261719 128.15625 L 108.726562 220.496094 C 108.324219 220.578125 107.871094 220.640625 107.464844 220.675781 C 104.863281 220.898438 102.117188 220.351562 99.804688 219.640625 C 94.390625 217.894531 91.417969 213.335938 89.785156 208.082031 L 90.351562 208.035156 C 93.097656 207.792969 95.730469 207.242188 98.171875 206.386719 C 101.519531 205.367188 100.710938 200.292969 97.1875 200.371094 C 91.609375 200.597656 85.628906 198.480469 81.816406 194.699219 C 80.070312 192.871094 78.550781 190.367188 77.871094 187.960938 C 76.613281 183.757812 77.289062 180.847656 76.902344 177.03125 C 76.628906 170.617188 78.4375 165.039062 81.527344 158.832031 C 81.542969 158.785156 81.558594 158.734375 81.574219 158.6875 C 85.242188 159.089844 88.945312 159.125 92.546875 158.882812 L 92.613281 158.882812 C 94.082031 158.75 94.503906 156.570312 93.128906 155.921875 C 81.785156 149.992188 71.457031 143.023438 63.199219 133.730469 C 52.191406 121.171875 45.046875 106.171875 46.824219 90.300781 C 48.019531 80.40625 53.886719 71.839844 61.273438 65.214844 C 65.914062 61.304688 72.25 56.9375 78.308594 56.40625 C 79.957031 56.261719 81.558594 56.40625 83.109375 56.890625 C 86.277344 58.3125 88.347656 62.371094 90.269531 66.101562 C 95.636719 77.433594 100.0625 91.058594 106.675781 102.503906 C 111.714844 111.992188 118.40625 120.6875 126.261719 128.136719 Z M 126.261719 128.15625 " fill-opacity="1" fill-rule="nonzero"/><g clip-path="url(#32496224ea)"><g clip-path="url(#60aacd0738)"><path fill="#fda936" d="M 50.703125 63.726562 C 58.867188 57.179688 70.339844 55.792969 70.921875 57.101562 C 71.164062 57.632812 69.5 58.523438 67.109375 60.867188 C 67.109375 60.867188 62.957031 64.90625 59.320312 72.457031 C 54.9375 81.523438 53.257812 112.332031 71.035156 131.710938 C 76.128906 137.269531 89.25 151.542969 95.699219 154.015625 C 96.394531 154.273438 99.644531 155.421875 100.144531 157.78125 C 100.371094 158.882812 99.933594 159.898438 99.464844 160.738281 C 97.023438 165.007812 93 165.394531 90.671875 167.820312 C 84.207031 174.574219 90.898438 195.878906 98.300781 197.15625 C 99.902344 197.429688 102.957031 196.996094 104.410156 198.933594 C 105.171875 199.9375 105.347656 201.390625 106.722656 202.019531 C 106.722656 202.019531 107.464844 202.359375 108.386719 202.246094 C 111.75 201.84375 114.042969 182.609375 118.875 165.167969 C 121.589844 155.324219 124.128906 149.652344 125.339844 149.878906 C 125.664062 149.941406 125.808594 150.429688 127.230469 155.390625 C 128.054688 158.285156 128.476562 159.738281 128.492188 159.800781 C 131.160156 178.40625 128.574219 197.753906 121.105469 215 C 118.699219 220.578125 114.980469 226.558594 109 227.609375 C 107.417969 227.882812 104.136719 227.914062 93.550781 220.429688 C 90.464844 218.234375 83.078125 213.011719 78.050781 207.53125 C 61.9375 190.011719 65.863281 165.589844 49.039062 128.996094 C 41.523438 112.652344 37.628906 104.167969 38.839844 90.21875 C 39.261719 85.371094 40.410156 71.988281 50.71875 63.710938 Z M 50.703125 63.726562 " fill-opacity="0.65" fill-rule="nonzero"/></g></g><path fill="#ba6b02" d="M 438.082031 473.355469 L 224.546875 454.816406 L 153.253906 433.546875 L 384.535156 450.855469 Z M 438.082031 473.355469 " fill-opacity="1" fill-rule="nonzero"/><path fill="#fec16f" d="M 703.496094 202.246094 C 709.394531 208.730469 709.25 216.390625 708.039062 225.28125 C 706.550781 234.753906 699.972656 242.429688 692.085938 248.523438 C 680.789062 257.285156 668.3125 261.90625 654.121094 263.167969 C 650.289062 263.507812 646.3125 263.585938 642.226562 263.476562 C 642.113281 263.476562 642 263.441406 641.886719 263.476562 C 641.09375 263.539062 640.316406 263.992188 639.882812 264.734375 C 639.171875 265.964844 639.589844 267.53125 640.804688 268.242188 C 646.039062 271.3125 651.726562 273.480469 657.691406 274.804688 C 659.859375 283.324219 658.855469 291.597656 653.636719 298.886719 C 647.960938 306.695312 639.414062 313.5 629.667969 316.976562 C 627.808594 317.636719 618.820312 321.195312 607.105469 321.566406 C 582.472656 322.308594 534.90625 309.589844 505.785156 267.953125 C 500.125 259.839844 492.546875 246.921875 487.570312 228.867188 C 492.707031 228.546875 496.601562 227.367188 499.722656 225.878906 C 503.425781 224.066406 506.1875 221.917969 508.773438 219.460938 C 521.445312 207.355469 526.453125 192.339844 537.234375 181.285156 C 541.824219 176.597656 546.835938 172.523438 552.203125 169.4375 C 557.890625 166.1875 563.984375 164.019531 570.382812 163.457031 C 574.878906 163.050781 579.5 163.421875 584.300781 164.75 C 590.183594 166.136719 599.21875 168.273438 607.089844 167.578125 C 608.867188 167.414062 610.613281 167.109375 612.261719 166.625 C 613.859375 166.234375 616.234375 165.492188 617.691406 164.78125 C 632.171875 158.832031 641.496094 144.414062 645.070312 129.769531 C 647.703125 120.671875 648.707031 111.636719 653.117188 104.523438 C 657.273438 98.089844 664.738281 94.535156 672.464844 93.855469 C 675.097656 93.628906 677.78125 93.726562 680.335938 94.164062 C 696.464844 97.054688 704.546875 114.59375 707.375 129.429688 C 711.1875 147.808594 705.289062 163.828125 691.828125 177.113281 C 670.589844 197.933594 640.851562 207.0625 611.082031 209.972656 C 608.398438 210.214844 608.363281 214.175781 611.082031 214.484375 C 619.679688 215.226562 628.40625 215.242188 637.117188 214.484375 C 649.628906 213.382812 662.089844 210.636719 674.128906 206.078125 C 680.902344 203.410156 687.496094 200.144531 693.765625 196.152344 C 697.824219 197.835938 701.378906 199.96875 703.480469 202.296875 Z M 703.496094 202.246094 " fill-opacity="1" fill-rule="nonzero"/><g clip-path="url(#9258974b45)"><g clip-path="url(#1bb3424d4d)"><path fill="#fda936" d="M 683.097656 93.417969 C 686.703125 96.636719 692.054688 102.277344 695.558594 110.714844 C 702.945312 128.460938 696.628906 145.160156 694.898438 149.75 C 686.203125 172.75 664.980469 184 655.15625 189.300781 C 630.425781 202.621094 602.0625 204.640625 602.386719 212.65625 C 602.386719 212.964844 602.449219 213.238281 602.449219 213.238281 C 603.191406 216.148438 610.015625 216.714844 612.535156 216.925781 C 621.457031 217.667969 628.777344 218.539062 642.613281 216.699219 C 665.644531 213.644531 685.363281 202.507812 690.179688 199.695312 C 691.359375 199.015625 692.878906 198.417969 694.171875 198.949219 C 698.839844 200.859375 699.714844 216.8125 694.21875 228.5625 C 686.152344 245.839844 662.167969 258.738281 647.414062 259.125 C 644.746094 259.191406 634.660156 259.0625 632.898438 263.621094 C 632.785156 263.910156 632.625 264.316406 632.640625 264.882812 C 632.835938 270.539062 650.644531 270.296875 653.621094 278.054688 C 655.332031 282.5 651.484375 287.800781 649.964844 289.902344 C 636.164062 308.957031 599.558594 307.117188 591.816406 306.726562 C 580.839844 306.179688 553.542969 304.660156 527.148438 284.566406 C 501.9375 265.382812 491.527344 240.539062 487.550781 228.851562 C 488.472656 241.007812 492.144531 266.042969 510.292969 288.609375 C 545.316406 332.136719 603.757812 328.886719 617.5625 327.207031 C 656.789062 322.421875 692.925781 299.972656 717.136719 268.742188 C 741.332031 237.515625 753.9375 198.078125 755.554688 158.605469 C 756.410156 137.820312 754.082031 116.160156 743.53125 98.234375 C 728.933594 73.425781 695.414062 64.792969 692.054688 69.433594 C 690.648438 71.371094 693.105469 77.257812 710.769531 95.003906 " fill-opacity="0.65" fill-rule="nonzero"/></g></g><path fill="#ff8e06" d="M 530.269531 314.277344 L 510.179688 469.65625 L 405.789062 426.871094 L 458.136719 136.835938 L 521.6875 179.101562 C 520.328125 181.269531 519.054688 183.449219 517.777344 185.566406 C 513.945312 191.933594 509.871094 198.367188 504.605469 203.605469 C 503.070312 205.011719 500.707031 207.195312 498.945312 208.261719 C 492.402344 212.933594 484.351562 215.582031 476.140625 216.308594 C 474.1875 216.488281 472.230469 216.535156 470.273438 216.503906 C 469.582031 216.632812 469.160156 217.3125 469.289062 217.976562 C 474.300781 241.945312 484.03125 265.027344 498.964844 284.859375 C 507.578125 296.335938 518.246094 306.242188 530.269531 314.277344 Z M 530.269531 314.277344 " fill-opacity="1" fill-rule="nonzero"/><g clip-path="url(#1930ed27e7)"><g clip-path="url(#00862ff0fc)"><path fill="#000000" d="M 551.394531 173.816406 C 493.144531 151.898438 478.277344 146.613281 478.179688 146.902344 C 478.097656 147.113281 486.339844 149.246094 494.082031 155.957031 C 495.8125 157.441406 515.207031 174.738281 509.242188 193.746094 C 504.183594 209.875 484.464844 215.726562 473.683594 216.472656 C 472.230469 216.570312 471.019531 216.570312 470.164062 216.550781 C 470.128906 216.550781 470.050781 216.601562 469.9375 216.648438 C 464.910156 217.523438 464.214844 236.09375 463.988281 242.058594 C 462.566406 280.140625 518.988281 408.1875 491.171875 438.007812 C 476.964844 453.234375 444.546875 438.816406 442.734375 446.074219 C 440.570312 454.734375 485.695312 480.175781 534.519531 486.546875 C 547.078125 488.179688 580.808594 491.167969 580.808594 491.167969 C 614.183594 484.816406 630.992188 469.574219 638.539062 461.089844 C 676.261719 418.757812 670.21875 335.433594 614.734375 260.773438 " fill-opacity="0.15" fill-rule="nonzero"/></g></g><path fill="#fda936" d="M 338.472656 106.527344 C 337.617188 106.640625 336.9375 106.820312 336.453125 106.996094 C 331.636719 108.582031 325.089844 114.125 316.539062 159.914062 C 315.503906 165.394531 314.777344 169.792969 314.375 172.199219 C 313.050781 172.699219 311.773438 173.152344 310.445312 173.542969 C 304.675781 175.351562 298.730469 176.515625 292.699219 177.050781 C 276.941406 178.4375 260.796875 175.480469 246.75 168.175781 C 241.53125 156.746094 239.367188 143.574219 239.496094 131.304688 C 239.382812 125.375 240.738281 120.171875 243.859375 115.902344 C 245.636719 113.445312 248.042969 111.28125 251.066406 109.519531 C 257.773438 105.347656 266.148438 103.003906 274.015625 101.597656 C 277.332031 101.03125 280.691406 100.597656 284.023438 100.304688 C 291.375 99.660156 298.792969 99.609375 306.261719 100.03125 C 311.320312 100.304688 315.296875 100.53125 320.679688 101.484375 C 328.160156 102.828125 334.207031 104.832031 338.472656 106.527344 Z M 338.472656 106.527344 " fill-opacity="1" fill-rule="nonzero"/><path fill="#ff8e06" d="M 428.351562 125.859375 L 375.226562 420.050781 L 99.515625 403.335938 L 153.15625 120.378906 L 217.449219 121.65625 C 215.625 128.753906 215.316406 136.042969 215.21875 142.960938 C 215.1875 147.648438 215.476562 152.335938 216.15625 156.972656 C 217.464844 166.300781 220.148438 175.382812 224.027344 183.96875 C 225.03125 186.230469 226.855469 188.25 229.070312 189.625 C 247.6875 202.214844 270.363281 207.742188 292.410156 205.789062 C 306.699219 204.527344 320.710938 200.128906 333.203125 192.515625 C 336.371094 190.59375 338.601562 187.199219 338.859375 183.191406 C 339.246094 176.46875 339.507812 169.710938 339.636719 162.90625 C 339.78125 156.117188 339.8125 149.265625 340.074219 142.441406 C 340.347656 136.285156 340.445312 129.996094 341.996094 124.144531 Z M 428.351562 125.859375 " fill-opacity="1" fill-rule="nonzero"/><g clip-path="url(#a6f18854d6)"><g clip-path="url(#de62783a7f)"><path fill="#ba6b02" d="M 367.789062 123.371094 C 364.285156 123.144531 358.980469 123.402344 354.730469 126.699219 C 350.5625 129.933594 349.089844 134.75 347.523438 145.335938 C 342.609375 178.730469 343.0625 184.113281 338.164062 189.671875 C 334.285156 194.070312 329.808594 195.652344 320.886719 198.789062 C 315.992188 200.519531 303.0625 205.011719 286.945312 201.746094 C 277.734375 199.886719 269.6875 197.964844 263.542969 190.722656 C 257.726562 183.855469 256.464844 173.914062 258.679688 165.183594 C 260.894531 156.457031 266.195312 148.8125 272.253906 142.152344 C 298.4375 113.398438 341.496094 101.292969 378.8125 112.203125 C 373.367188 114.335938 367.9375 116.46875 362.488281 118.601562 " fill-opacity="1" fill-rule="nonzero"/></g></g></svg>