<svg xmlns="http://www.w3.org/2000/svg" xmlns:xlink="http://www.w3.org/1999/xlink" width="1010" zoomAndPan="magnify" viewBox="0 0 757.5 532.499984" height="710" preserveAspectRatio="xMidYMid meet" version="1.0"><defs><clipPath id="4e0265c649"><path d="M 0.105469 12 L 756.894531 12 L 756.894531 523 L 0.105469 523 Z M 0.105469 12 " clip-rule="nonzero"/></clipPath><clipPath id="432b40f863"><path d="M 45 56.382812 L 125.886719 56.382812 L 125.886719 222 L 45 222 Z M 45 56.382812 " clip-rule="nonzero"/></clipPath><clipPath id="f837814a80"><path d="M 125.398438 128.738281 L 107.765625 221.585938 C 107.359375 221.667969 106.90625 221.734375 106.5 221.765625 C 103.882812 221.992188 101.121094 221.441406 98.796875 220.726562 C 93.351562 218.96875 90.363281 214.386719 88.722656 209.105469 L 89.289062 209.058594 C 92.054688 208.8125 94.703125 208.261719 97.15625 207.398438 C 100.519531 206.375 99.707031 201.273438 96.164062 201.351562 C 90.558594 201.582031 84.546875 199.453125 80.710938 195.648438 C 78.957031 193.8125 77.429688 191.292969 76.746094 188.871094 C 75.476562 184.644531 76.160156 181.71875 75.769531 177.882812 C 75.496094 171.433594 77.3125 165.824219 80.417969 159.585938 C 80.433594 159.535156 80.449219 159.488281 80.46875 159.4375 C 84.15625 159.84375 87.878906 159.875 91.5 159.632812 L 91.566406 159.632812 C 93.042969 159.503906 93.46875 157.308594 92.085938 156.660156 C 80.679688 150.695312 70.292969 143.691406 61.992188 134.34375 C 50.921875 121.714844 43.742188 106.632812 45.527344 90.675781 C 46.730469 80.726562 52.628906 72.113281 60.054688 65.449219 C 64.71875 61.515625 71.089844 57.128906 77.183594 56.59375 C 78.84375 56.445312 80.449219 56.59375 82.011719 57.082031 C 85.195312 58.511719 87.277344 62.589844 89.210938 66.34375 C 94.605469 77.738281 99.058594 91.4375 105.703125 102.945312 C 110.773438 112.484375 117.5 121.230469 125.398438 128.722656 Z M 125.398438 128.738281 " clip-rule="nonzero"/></clipPath><clipPath id="36b80e835c"><path d="M 488.269531 94 L 712 94 L 712 324 L 488.269531 324 Z M 488.269531 94 " clip-rule="nonzero"/></clipPath><clipPath id="218703d842"><path d="M 705.78125 203.238281 C 711.710938 209.753906 711.566406 217.460938 710.347656 226.398438 C 708.851562 235.921875 702.238281 243.640625 694.308594 249.769531 C 682.949219 258.578125 670.402344 263.226562 656.136719 264.492188 C 652.285156 264.835938 648.285156 264.917969 644.175781 264.800781 C 644.0625 264.800781 643.945312 264.769531 643.832031 264.800781 C 643.035156 264.867188 642.257812 265.324219 641.816406 266.070312 C 641.101562 267.304688 641.527344 268.882812 642.746094 269.597656 C 648.007812 272.683594 653.730469 274.863281 659.726562 276.195312 C 661.902344 284.761719 660.894531 293.082031 655.648438 300.410156 C 649.945312 308.261719 641.347656 315.105469 631.546875 318.597656 C 629.679688 319.265625 620.644531 322.839844 608.863281 323.214844 C 584.097656 323.960938 536.273438 311.171875 506.988281 269.304688 C 501.300781 261.144531 493.679688 248.160156 488.675781 230.007812 C 493.84375 229.679688 497.757812 228.496094 500.894531 227 C 504.617188 225.179688 507.394531 223.015625 509.996094 220.546875 C 522.734375 208.375 527.773438 193.277344 538.613281 182.160156 C 543.226562 177.445312 548.265625 173.351562 553.660156 170.246094 C 559.378906 166.980469 565.507812 164.800781 571.941406 164.234375 C 576.460938 163.828125 581.105469 164.199219 585.933594 165.53125 C 591.847656 166.929688 600.933594 169.074219 608.847656 168.378906 C 610.632812 168.214844 612.390625 167.90625 614.046875 167.417969 C 615.65625 167.027344 618.042969 166.28125 619.507812 165.566406 C 634.066406 159.585938 643.441406 145.085938 647.035156 130.363281 C 649.683594 121.210938 650.691406 112.128906 655.128906 104.976562 C 659.304688 98.507812 666.8125 94.933594 674.578125 94.25 C 677.226562 94.023438 679.925781 94.121094 682.492188 94.558594 C 698.710938 97.46875 706.835938 115.101562 709.679688 130.019531 C 713.515625 148.5 707.582031 164.605469 694.046875 177.964844 C 672.695312 198.898438 642.792969 208.082031 612.859375 211.007812 C 610.164062 211.25 610.128906 215.234375 612.859375 215.542969 C 621.503906 216.289062 630.28125 216.304688 639.039062 215.542969 C 651.617188 214.4375 664.144531 211.671875 676.253906 207.089844 C 683.0625 204.410156 689.691406 201.125 695.996094 197.109375 C 700.074219 198.800781 703.652344 200.945312 705.761719 203.285156 Z M 705.78125 203.238281 " clip-rule="nonzero"/></clipPath><clipPath id="71abeccbf9"><path d="M 443 147 L 532 147 L 532 472.441406 L 443 472.441406 Z M 443 147 " clip-rule="nonzero"/></clipPath><clipPath id="6a6be51763"><path d="M 531.609375 315.882812 L 511.410156 472.117188 L 406.449219 429.097656 L 459.082031 137.464844 L 522.980469 179.964844 C 521.613281 182.144531 520.332031 184.335938 519.046875 186.464844 C 515.195312 192.871094 511.101562 199.335938 505.804688 204.605469 C 504.257812 206.015625 501.886719 208.210938 500.117188 209.285156 C 493.535156 213.980469 485.441406 216.648438 477.1875 217.378906 C 475.21875 217.558594 473.253906 217.605469 471.289062 217.574219 C 470.589844 217.703125 470.167969 218.386719 470.296875 219.050781 C 475.332031 243.152344 485.117188 266.363281 500.132812 286.304688 C 508.792969 297.84375 519.519531 307.804688 531.609375 315.882812 Z M 531.609375 315.882812 " clip-rule="nonzero"/></clipPath><clipPath id="2878ff4800"><path d="M 257 120 L 380 120 L 380 204 L 257 204 Z M 257 120 " clip-rule="nonzero"/></clipPath><clipPath id="926e8b3613"><path d="M 429.132812 126.429688 L 375.71875 422.238281 L 98.503906 405.433594 L 152.441406 120.921875 L 217.082031 122.203125 C 215.246094 129.339844 214.9375 136.667969 214.839844 143.625 C 214.808594 148.335938 215.101562 153.050781 215.785156 157.714844 C 217.101562 167.09375 219.796875 176.226562 223.695312 184.855469 C 224.703125 187.132812 226.542969 189.164062 228.765625 190.546875 C 247.488281 203.207031 270.285156 208.765625 292.453125 206.796875 C 306.816406 205.53125 320.90625 201.109375 333.46875 193.453125 C 336.652344 191.519531 338.894531 188.105469 339.15625 184.078125 C 339.546875 177.316406 339.804688 170.523438 339.9375 163.679688 C 340.082031 156.855469 340.113281 149.964844 340.375 143.105469 C 340.652344 136.914062 340.75 130.589844 342.308594 124.707031 Z M 429.132812 126.429688 " clip-rule="nonzero"/></clipPath></defs><path fill="#fff7f9" d="M 731.570312 144.8125 C 733.894531 120.382812 726.449219 93.925781 706.511719 78.09375 C 696.289062 70.390625 683.257812 67.253906 670.613281 68.375 C 655.550781 69.707031 640.988281 77.121094 632.425781 90.121094 C 628.410156 96.167969 626.234375 102.636719 624.707031 108.277344 C 620.613281 122.398438 620.871094 142.714844 603.175781 145.183594 C 596.949219 145.738281 585.980469 142.617188 574.476562 143.625 C 573.339844 143.722656 572.234375 143.851562 571.113281 144.0625 C 558.761719 145.933594 547.695312 151.636719 538.675781 159.972656 C 538.613281 160.007812 538.546875 160.070312 538.515625 160.152344 L 453.296875 103.351562 L 453.101562 103.238281 C 452.859375 103.089844 452.617188 102.914062 452.355469 102.796875 C 452.242188 102.71875 452.09375 102.667969 451.949219 102.585938 C 451.753906 102.539062 451.59375 102.441406 451.429688 102.359375 C 451.234375 102.261719 451.070312 102.230469 450.910156 102.179688 C 450.550781 102.050781 450.179688 101.953125 449.804688 101.886719 C 449.496094 101.824219 449.203125 101.757812 448.925781 101.742188 C 448.667969 101.695312 448.390625 101.675781 448.148438 101.675781 L 448.082031 101.675781 C 448.082031 101.675781 350.125 99.710938 350.125 99.710938 C 343.820312 95.941406 334.605469 91.292969 322.824219 88.105469 C 305.808594 83.457031 292.128906 84.191406 284.195312 84.660156 C 263.265625 85.945312 246.238281 91.910156 234.375 97.417969 L 139.699219 95.515625 C 139.324219 95.515625 138.984375 95.515625 138.644531 95.535156 C 134.5 95.90625 131.003906 98.980469 130.242188 103.1875 L 129.347656 107.820312 C 126.960938 103.644531 124.863281 99.222656 123.058594 94.589844 C 119.710938 86.269531 116.753906 76.097656 114.074219 67.207031 C 111.78125 59.910156 109.585938 52.96875 105.003906 46.027344 C 97.578125 34.472656 85.714844 30.425781 73.738281 31.484375 C 66.523438 32.117188 59.292969 34.621094 52.953125 38.421875 C 35.242188 48.792969 21.234375 67.027344 19.039062 87.847656 C 16.472656 112.109375 30.820312 136.292969 50.226562 148.597656 C 53.507812 150.757812 56.9375 152.597656 60.480469 154.140625 C 57.425781 156.625 54.757812 159.8125 52.839844 163.5 C 50.515625 167.726562 49.265625 172.683594 49.105469 177.691406 C 48.46875 190.644531 57.148438 200.652344 68.457031 205.253906 C 72.339844 207.203125 76.679688 208.457031 81.050781 208.992188 C 80.644531 210.144531 80.320312 211.316406 80.09375 212.550781 C 77.21875 227.664062 90.070312 239.5625 104.09375 241.007812 L 70.539062 418.0625 C 70.539062 418.0625 70.503906 418.242188 70.488281 418.339844 C 70.308594 419.199219 70.246094 420.046875 70.34375 420.875 C 70.34375 421.101562 70.34375 421.3125 70.425781 421.558594 C 70.472656 421.785156 70.488281 422.027344 70.554688 422.253906 C 70.601562 422.449219 70.667969 422.679688 70.714844 422.875 C 70.78125 423.066406 70.847656 423.230469 70.894531 423.425781 C 70.960938 423.589844 71.042969 423.785156 71.121094 423.929688 C 71.414062 424.597656 71.757812 425.199219 72.226562 425.78125 C 72.226562 425.796875 72.226562 425.878906 72.277344 425.894531 C 72.308594 425.960938 72.359375 426.011719 72.40625 426.074219 C 72.457031 426.125 72.503906 426.203125 72.585938 426.269531 C 72.730469 426.433594 72.863281 426.59375 72.992188 426.707031 C 73.136719 426.871094 73.285156 427 73.464844 427.148438 C 73.640625 427.292969 73.820312 427.488281 74.015625 427.617188 C 74.601562 428.042969 75.25 428.464844 75.964844 428.722656 C 76.210938 428.886719 76.46875 428.953125 76.746094 429.050781 L 76.957031 429.113281 L 229.402344 480.164062 C 230.019531 480.359375 230.683594 480.503906 231.367188 480.585938 L 231.644531 480.585938 C 231.644531 480.585938 523.660156 503.890625 523.660156 503.890625 C 523.726562 503.890625 523.777344 503.890625 523.875 503.890625 L 523.972656 503.890625 C 524.214844 503.890625 524.457031 503.90625 524.703125 503.890625 C 524.816406 503.890625 524.945312 503.890625 525.09375 503.890625 C 525.207031 503.890625 525.289062 503.84375 525.382812 503.84375 L 525.613281 503.84375 C 525.824219 503.808594 526.019531 503.792969 526.230469 503.746094 C 526.410156 503.710938 526.621094 503.695312 526.816406 503.632812 C 527.171875 503.535156 527.53125 503.4375 527.855469 503.242188 C 528.082031 503.175781 528.277344 503.113281 528.488281 502.996094 C 528.699219 502.882812 528.945312 502.769531 529.136719 502.640625 C 529.351562 502.527344 529.527344 502.429688 529.707031 502.265625 C 529.96875 502.136719 530.210938 501.925781 530.4375 501.746094 C 530.78125 501.46875 531.121094 501.144531 531.429688 500.769531 C 531.625 500.59375 531.789062 500.382812 531.933594 500.1875 C 532.226562 499.84375 532.484375 499.453125 532.699219 499.015625 C 532.828125 498.757812 532.972656 498.496094 533.085938 498.203125 C 533.085938 498.203125 533.09375 498.1875 533.105469 498.15625 C 533.21875 497.894531 533.332031 497.632812 533.394531 497.375 C 533.492188 497.066406 533.574219 496.789062 533.640625 496.511719 C 533.671875 496.300781 533.722656 496.089844 533.738281 495.863281 C 533.753906 495.8125 533.738281 495.765625 533.769531 495.699219 L 533.820312 495.246094 L 555.414062 328.738281 C 568.902344 334.425781 583.316406 338.003906 597.894531 339.15625 C 604.378906 339.628906 611.152344 339.695312 617.914062 339.109375 C 631.53125 337.90625 645.085938 334.003906 656.152344 325.375 C 671.589844 313.691406 680.070312 295.179688 673.75 277.707031 C 675.621094 277.707031 677.488281 277.625 679.355469 277.464844 C 685.078125 276.960938 690.730469 275.675781 696.078125 273.726562 C 708.867188 269.125 720.988281 261.226562 728.953125 249.476562 C 737.484375 236.492188 740.328125 221.179688 735.257812 205.628906 C 731.699219 194.851562 722.875 186.808594 712.574219 183.800781 C 722.597656 173.351562 730.1875 159.488281 731.617188 144.890625 Z M 239.234375 131.90625 C 239.117188 125.941406 240.484375 120.707031 243.621094 116.417969 C 245.40625 113.949219 247.828125 111.769531 250.867188 110 C 257.613281 105.804688 266.03125 103.449219 273.945312 102.035156 C 277.273438 101.464844 280.65625 101.027344 284.003906 100.734375 C 291.394531 100.085938 298.855469 100.035156 306.363281 100.457031 C 311.449219 100.734375 315.445312 100.960938 320.859375 101.921875 C 328.382812 103.269531 334.460938 105.285156 338.75 106.992188 C 337.886719 107.105469 337.207031 107.285156 336.71875 107.464844 C 331.875 109.054688 325.292969 114.628906 316.699219 160.671875 C 315.65625 166.183594 314.925781 170.601562 314.519531 173.023438 C 313.1875 173.527344 311.902344 173.984375 310.570312 174.375 C 304.769531 176.195312 298.789062 177.363281 292.730469 177.902344 C 276.882812 179.296875 260.652344 176.324219 246.527344 168.976562 C 241.28125 157.488281 239.101562 144.242188 239.234375 131.90625 Z M 98.796875 220.742188 C 93.351562 218.988281 90.363281 214.402344 88.722656 209.121094 L 89.289062 209.074219 C 92.054688 208.828125 94.703125 208.277344 97.15625 207.414062 C 100.519531 206.390625 99.707031 201.289062 96.164062 201.371094 C 90.558594 201.597656 84.546875 199.46875 80.710938 195.664062 C 78.957031 193.828125 77.429688 191.308594 76.746094 188.886719 C 75.476562 184.660156 76.160156 181.738281 75.769531 177.902344 C 75.496094 171.449219 77.3125 165.839844 80.417969 159.601562 C 80.433594 159.550781 80.449219 159.503906 80.46875 159.453125 C 84.15625 159.859375 87.875 159.894531 91.5 159.648438 L 91.566406 159.648438 C 93.042969 159.519531 93.46875 157.324219 92.085938 156.675781 C 80.679688 150.710938 70.292969 143.707031 61.988281 134.359375 C 50.921875 121.734375 43.742188 106.648438 45.527344 90.691406 C 46.730469 80.742188 52.628906 72.128906 60.054688 65.464844 C 64.71875 61.535156 71.089844 57.144531 77.183594 56.609375 C 78.84375 56.464844 80.449219 56.609375 82.011719 57.097656 C 85.195312 58.527344 87.277344 62.605469 89.210938 66.359375 C 94.605469 77.753906 99.058594 91.453125 105.703125 102.960938 C 110.773438 112.5 117.5 121.246094 125.398438 128.738281 L 107.765625 221.585938 C 107.359375 221.667969 106.90625 221.734375 106.5 221.765625 C 103.882812 221.992188 101.121094 221.441406 98.796875 220.726562 Z M 152.441406 120.921875 L 217.082031 122.203125 C 215.246094 129.339844 214.9375 136.667969 214.839844 143.625 C 214.808594 148.335938 215.101562 153.050781 215.785156 157.714844 C 217.097656 167.09375 219.796875 176.226562 223.695312 184.855469 C 224.703125 187.132812 226.542969 189.164062 228.765625 190.546875 C 247.488281 203.207031 270.285156 208.765625 292.453125 206.796875 C 306.816406 205.53125 320.90625 201.109375 333.46875 193.453125 C 336.652344 191.519531 338.894531 188.109375 339.15625 184.078125 C 339.546875 177.316406 339.804688 170.523438 339.9375 163.679688 C 340.082031 156.855469 340.113281 149.964844 340.375 143.105469 C 340.652344 136.914062 340.75 130.589844 342.308594 124.707031 L 429.132812 126.429688 L 375.71875 422.238281 L 98.503906 405.433594 Z M 224.21875 457.199219 L 152.539062 435.808594 L 385.078125 453.214844 L 438.917969 475.839844 Z M 511.410156 472.101562 L 406.449219 429.082031 L 459.082031 137.449219 L 522.980469 179.949219 C 521.613281 182.125 520.332031 184.320312 519.046875 186.449219 C 515.195312 192.851562 511.101562 199.320312 505.804688 204.585938 C 504.257812 206 501.886719 208.195312 500.117188 209.269531 C 493.535156 213.964844 485.441406 216.628906 477.1875 217.363281 C 475.21875 217.539062 473.253906 217.589844 471.289062 217.558594 C 470.589844 217.6875 470.167969 218.371094 470.296875 219.035156 C 475.332031 243.136719 485.117188 266.347656 500.132812 286.289062 C 508.792969 297.828125 519.519531 307.789062 531.609375 315.867188 Z M 694.0625 177.933594 C 672.710938 198.867188 642.808594 208.050781 612.875 210.972656 C 610.179688 211.21875 610.144531 215.199219 612.875 215.507812 C 621.523438 216.257812 630.296875 216.273438 639.054688 215.507812 C 651.632812 214.402344 664.164062 211.640625 676.269531 207.058594 C 683.078125 204.375 689.707031 201.09375 696.011719 197.078125 C 700.09375 198.769531 703.667969 200.914062 705.78125 203.253906 C 711.710938 209.773438 711.566406 217.476562 710.347656 226.414062 C 708.851562 235.9375 702.238281 243.65625 694.308594 249.785156 C 682.949219 258.59375 670.402344 263.242188 656.136719 264.511719 C 652.285156 264.851562 648.285156 264.933594 644.175781 264.820312 C 644.0625 264.820312 643.945312 264.785156 643.832031 264.820312 C 643.039062 264.882812 642.257812 265.339844 641.820312 266.085938 C 641.101562 267.320312 641.527344 268.898438 642.746094 269.613281 C 648.007812 272.699219 653.730469 274.878906 659.726562 276.210938 C 661.902344 284.777344 660.894531 293.097656 655.648438 300.425781 C 649.945312 308.277344 641.347656 315.121094 631.546875 318.613281 C 629.679688 319.28125 620.644531 322.855469 608.863281 323.230469 C 584.097656 323.976562 536.273438 311.1875 506.988281 269.320312 C 501.300781 261.160156 493.679688 248.175781 488.675781 230.023438 C 493.84375 229.695312 497.757812 228.511719 500.894531 227.015625 C 504.617188 225.195312 507.394531 223.035156 509.996094 220.5625 C 522.734375 208.390625 527.773438 193.292969 538.613281 182.175781 C 543.226562 177.460938 548.265625 173.367188 553.660156 170.261719 C 559.378906 166.996094 565.507812 164.816406 571.941406 164.25 C 576.460938 163.84375 581.105469 164.214844 585.933594 165.550781 C 591.847656 166.945312 600.933594 169.09375 608.847656 168.394531 C 610.632812 168.230469 612.390625 167.921875 614.046875 167.433594 C 615.65625 167.042969 618.042969 166.296875 619.507812 165.582031 C 634.066406 159.601562 643.441406 145.101562 647.035156 130.378906 C 649.683594 121.230469 650.691406 112.144531 655.128906 104.992188 C 659.304688 98.523438 666.8125 94.949219 674.578125 94.265625 C 677.226562 94.039062 679.925781 94.136719 682.492188 94.574219 C 698.710938 97.484375 706.835938 115.117188 709.679688 130.039062 C 713.515625 148.515625 707.582031 164.621094 694.046875 177.980469 Z M 694.0625 177.933594 " fill-opacity="1" fill-rule="nonzero"/><g clip-path="url(#4e0265c649)"><path fill="#8b0414" d="M 718.226562 63.320312 C 718.097656 63.222656 717.984375 63.160156 717.855469 63.0625 C 704.234375 52.757812 686.863281 47.980469 668.941406 49.570312 C 647.082031 51.507812 628.023438 62.476562 616.648438 79.6875 C 610.925781 88.382812 608.113281 97.222656 606.507812 103.203125 C 605.464844 106.78125 604.71875 110.339844 604.019531 113.800781 C 603.191406 117.667969 601.890625 123.960938 600.558594 126.316406 C 599.160156 126.21875 596.984375 125.972656 595.292969 125.746094 C 589.445312 125.046875 581.398438 124.074219 572.804688 124.835938 C 571.210938 124.984375 569.652344 125.160156 568.140625 125.40625 C 557.332031 127.0625 547.03125 130.996094 537.71875 136.929688 L 463.730469 87.636719 C 463.519531 87.488281 463.292969 87.328125 463.082031 87.210938 C 462.59375 86.921875 462.136719 86.609375 461.652344 86.382812 C 460.804688 85.878906 460.074219 85.554688 459.539062 85.3125 L 458.921875 85.050781 C 458.140625 84.710938 457.359375 84.417969 456.582031 84.15625 C 455.71875 83.898438 454.824219 83.621094 453.867188 83.410156 C 452.777344 83.164062 451.6875 83.003906 450.566406 82.90625 C 450.277344 82.890625 449.949219 82.875 449.625 82.824219 C 449.234375 82.792969 448.828125 82.777344 448.40625 82.777344 L 354.300781 80.890625 C 351.050781 79.28125 346.550781 77.183594 341.023438 75.105469 C 316.632812 65.921875 295.214844 65.433594 284.75 65.742188 C 259.886719 66.507812 240.582031 73.382812 229.289062 78.371094 L 140.039062 76.617188 C 139.015625 76.601562 137.960938 76.617188 136.9375 76.714844 L 136.691406 76.714844 C 135.410156 72.78125 134.175781 68.636719 132.9375 64.574219 C 132.9375 64.574219 132.027344 61.566406 132.027344 61.46875 C 129.558594 53.636719 126.78125 44.808594 120.734375 35.660156 C 110.140625 19.246094 92.378906 10.84375 72.03125 12.628906 C 62.121094 13.507812 52.191406 16.789062 43.253906 22.121094 C 19.007812 36.34375 2.902344 60.101562 0.222656 85.75 C -2.703125 113.296875 10.558594 142.179688 33.617188 159.941406 C 31.554688 165.273438 30.382812 170.992188 30.171875 176.894531 C 29.3125 196.429688 41.191406 214.175781 60.578125 222.351562 C 60.769531 222.464844 60.984375 222.5625 61.175781 222.660156 C 62.167969 229.273438 64.816406 235.597656 68.960938 241.203125 C 72.570312 246.03125 77.199219 250.109375 82.480469 253.230469 L 51.964844 414.242188 C 51.867188 414.714844 51.785156 415.152344 51.753906 415.496094 C 51.378906 417.703125 51.265625 419.898438 51.460938 422.078125 C 51.492188 422.988281 51.621094 423.863281 51.769531 424.742188 C 51.851562 425.117188 51.949219 425.683594 52.09375 426.335938 C 52.238281 427.035156 52.417969 427.601562 52.566406 428.105469 C 52.761719 428.839844 53.019531 429.570312 53.3125 430.332031 C 53.523438 430.871094 53.71875 431.308594 53.863281 431.585938 C 54.546875 433.195312 55.425781 434.722656 56.449219 436.152344 C 56.742188 436.605469 57.082031 437.0625 57.441406 437.5 C 57.441406 437.5 57.699219 437.84375 57.847656 438.019531 C 57.945312 438.101562 58.367188 438.636719 58.464844 438.753906 C 58.789062 439.109375 59.066406 439.433594 59.375 439.726562 C 59.976562 440.378906 60.625 440.996094 61.273438 441.5 C 61.664062 441.855469 62.085938 442.179688 62.558594 442.554688 C 64.28125 443.839844 66.117188 444.960938 68.035156 445.820312 C 69.042969 446.277344 69.9375 446.617188 70.636719 446.828125 C 70.734375 446.863281 223.503906 498.023438 223.566406 498.039062 C 225.515625 498.675781 227.5 499.113281 229.417969 499.292969 C 229.578125 499.324219 522.230469 522.664062 522.230469 522.664062 C 522.6875 522.695312 523.160156 522.710938 523.613281 522.695312 C 524.117188 522.710938 524.570312 522.726562 524.996094 522.695312 C 525.5625 522.664062 526.148438 522.648438 526.699219 522.597656 C 527.027344 522.566406 527.351562 522.535156 527.675781 522.484375 C 528.226562 522.4375 528.730469 522.371094 529.300781 522.273438 C 529.707031 522.207031 530.128906 522.125 530.550781 522.03125 C 530.910156 521.933594 531.363281 521.851562 531.902344 521.6875 C 532.519531 521.527344 533.542969 521.199219 534.761719 520.695312 C 535.378906 520.484375 535.980469 520.191406 536.546875 519.949219 C 537.230469 519.640625 537.882812 519.28125 538.5 518.910156 C 539.148438 518.550781 539.765625 518.175781 540.367188 517.738281 C 541.292969 517.136719 541.960938 516.570312 542.367188 516.242188 C 543.4375 515.367188 544.460938 514.359375 545.4375 513.300781 C 545.875 512.796875 546.316406 512.292969 546.722656 511.742188 C 547.648438 510.554688 548.492188 509.304688 549.191406 507.9375 C 549.742188 506.980469 550.183594 506.019531 550.574219 505.03125 C 550.800781 504.507812 551.125 503.695312 551.417969 502.6875 C 551.644531 501.957031 551.792969 501.292969 551.9375 500.769531 C 552.035156 500.300781 552.132812 499.796875 552.214844 499.324219 C 552.230469 499.257812 552.214844 499.179688 552.246094 499.113281 C 552.3125 498.773438 552.359375 498.398438 552.425781 498.023438 C 552.425781 498.007812 571.113281 353.785156 571.113281 353.785156 C 579.417969 355.863281 587.820312 357.246094 596.316406 357.945312 L 596.480469 357.945312 C 604.539062 358.53125 612.292969 358.480469 619.523438 357.832031 C 638.632812 356.140625 654.800781 350.207031 667.589844 340.277344 C 683.742188 327.960938 693.21875 311.136719 694.535156 293.84375 C 697.199219 293.179688 699.847656 292.351562 702.414062 291.40625 C 720.4375 284.921875 734.996094 274.050781 744.503906 259.992188 C 744.570312 259.910156 744.601562 259.828125 744.667969 259.765625 C 756.757812 241.335938 759.746094 220.011719 753.101562 199.628906 C 750.417969 191.519531 745.820312 184.289062 739.871094 178.503906 C 745.65625 168.394531 749.25 157.519531 750.320312 146.613281 C 753.539062 112.941406 741.515625 81.800781 718.226562 63.320312 Z M 731.570312 144.8125 C 730.140625 159.421875 722.566406 173.285156 712.523438 183.71875 C 722.828125 186.726562 731.648438 194.769531 735.207031 205.546875 C 740.296875 221.101562 737.433594 236.410156 728.902344 249.394531 C 720.957031 261.144531 708.820312 269.027344 696.03125 273.644531 C 690.667969 275.609375 685.011719 276.878906 679.308594 277.382812 C 677.4375 277.542969 675.570312 277.625 673.703125 277.625 C 680.023438 295.082031 671.523438 313.609375 656.101562 325.292969 C 645.035156 333.941406 631.484375 337.824219 617.867188 339.027344 C 611.105469 339.628906 604.328125 339.5625 597.84375 339.074219 C 583.269531 337.921875 568.871094 334.347656 555.367188 328.65625 L 533.769531 495.164062 L 533.722656 495.617188 C 533.722656 495.617188 533.722656 495.734375 533.6875 495.78125 C 533.65625 496.007812 533.605469 496.21875 533.589844 496.433594 C 533.527344 496.707031 533.429688 497 533.347656 497.277344 C 533.28125 497.554688 533.167969 497.8125 533.054688 498.074219 C 533.054688 498.074219 533.050781 498.089844 533.039062 498.121094 C 532.925781 498.398438 532.792969 498.675781 532.648438 498.933594 C 532.4375 499.355469 532.175781 499.746094 531.882812 500.105469 C 531.738281 500.300781 531.574219 500.527344 531.382812 500.691406 C 531.070312 501.0625 530.730469 501.390625 530.390625 501.664062 C 530.144531 501.84375 529.917969 502.054688 529.660156 502.183594 C 529.496094 502.332031 529.316406 502.445312 529.089844 502.558594 C 528.894531 502.6875 528.652344 502.800781 528.441406 502.917969 C 528.226562 503.03125 528.015625 503.09375 527.804688 503.160156 C 527.480469 503.355469 527.125 503.453125 526.765625 503.550781 C 526.570312 503.613281 526.359375 503.632812 526.179688 503.664062 C 525.984375 503.710938 525.773438 503.730469 525.5625 503.746094 L 525.335938 503.746094 C 525.238281 503.777344 525.15625 503.808594 525.042969 503.808594 C 524.914062 503.808594 524.765625 503.808594 524.652344 503.808594 C 524.410156 503.828125 524.164062 503.808594 523.921875 503.808594 L 523.824219 503.808594 C 523.726562 503.808594 523.695312 503.808594 523.613281 503.808594 L 231.59375 480.519531 L 231.320312 480.519531 C 230.652344 480.421875 229.96875 480.277344 229.351562 480.082031 L 76.90625 429.03125 L 76.695312 428.96875 C 76.421875 428.886719 76.160156 428.804688 75.917969 428.644531 C 75.203125 428.382812 74.550781 427.960938 73.964844 427.539062 C 73.773438 427.390625 73.59375 427.210938 73.414062 427.066406 C 73.234375 426.921875 73.089844 426.789062 72.941406 426.628906 C 72.8125 426.496094 72.683594 426.351562 72.535156 426.1875 C 72.457031 426.125 72.40625 426.042969 72.359375 425.992188 C 72.308594 425.929688 72.261719 425.894531 72.226562 425.816406 C 72.179688 425.796875 72.179688 425.734375 72.179688 425.699219 C 71.722656 425.132812 71.367188 424.515625 71.074219 423.847656 C 70.992188 423.703125 70.910156 423.492188 70.847656 423.34375 C 70.78125 423.148438 70.714844 422.988281 70.667969 422.792969 C 70.601562 422.597656 70.539062 422.371094 70.503906 422.175781 C 70.441406 421.945312 70.425781 421.703125 70.375 421.476562 C 70.308594 421.230469 70.292969 421.019531 70.292969 420.792969 C 70.195312 419.980469 70.261719 419.117188 70.441406 418.257812 C 70.441406 418.160156 70.441406 418.03125 70.488281 417.980469 L 104.046875 240.925781 C 90.023438 239.496094 77.167969 227.585938 80.042969 212.46875 C 80.273438 211.234375 80.613281 210.0625 81.003906 208.910156 C 76.632812 208.375 72.292969 207.121094 68.410156 205.171875 C 57.097656 200.574219 48.40625 190.5625 49.054688 177.609375 C 49.199219 172.601562 50.46875 167.644531 52.792969 163.417969 C 54.710938 159.730469 57.375 156.546875 60.429688 154.058594 C 56.886719 152.515625 53.457031 150.679688 50.175781 148.515625 C 30.773438 136.214844 16.425781 112.03125 18.992188 87.765625 C 21.167969 66.945312 35.175781 48.710938 52.90625 38.339844 C 59.242188 34.539062 66.476562 32.035156 73.691406 31.402344 C 85.667969 30.34375 97.53125 34.390625 104.957031 45.949219 C 109.554688 52.886719 111.734375 59.828125 114.023438 67.125 C 116.703125 76.015625 119.664062 86.171875 123.011719 94.507812 C 124.8125 99.15625 126.925781 103.5625 129.300781 107.738281 L 130.191406 103.105469 C 130.957031 98.898438 134.449219 95.824219 138.59375 95.453125 C 138.933594 95.417969 139.277344 95.417969 139.652344 95.4375 L 234.324219 97.335938 C 246.1875 91.828125 263.21875 85.863281 284.148438 84.578125 C 292.09375 84.109375 305.761719 83.375 322.777344 88.023438 C 334.558594 91.210938 343.769531 95.859375 350.074219 99.628906 L 448.03125 101.613281 L 448.097656 101.613281 C 448.339844 101.613281 448.617188 101.613281 448.878906 101.675781 C 449.152344 101.691406 449.460938 101.757812 449.753906 101.824219 C 450.128906 101.886719 450.503906 101.984375 450.859375 102.117188 C 451.023438 102.164062 451.183594 102.195312 451.378906 102.292969 C 451.542969 102.375 451.722656 102.472656 451.898438 102.523438 C 452.046875 102.601562 452.191406 102.652344 452.304688 102.734375 C 452.566406 102.847656 452.808594 103.027344 453.054688 103.171875 L 453.25 103.285156 L 538.464844 160.089844 C 538.464844 160.089844 538.5625 159.941406 538.628906 159.910156 C 547.664062 151.589844 558.730469 145.867188 571.0625 144 C 572.183594 143.785156 573.289062 143.65625 574.429688 143.558594 C 585.933594 142.535156 596.902344 145.671875 603.125 145.121094 C 620.804688 142.648438 620.546875 122.332031 624.65625 108.210938 C 626.203125 102.570312 628.363281 96.101562 632.375 90.054688 C 640.941406 77.070312 655.5 69.644531 670.566406 68.3125 C 683.207031 67.1875 696.242188 70.34375 706.460938 78.03125 C 726.402344 93.859375 733.84375 120.320312 731.519531 144.746094 Z M 731.570312 144.8125 " fill-opacity="1" fill-rule="nonzero"/></g><path fill="#fec16f" d="M 125.398438 128.738281 L 107.765625 221.585938 C 107.359375 221.667969 106.90625 221.734375 106.5 221.765625 C 103.882812 221.992188 101.121094 221.441406 98.796875 220.726562 C 93.351562 218.96875 90.363281 214.386719 88.722656 209.105469 L 89.289062 209.058594 C 92.054688 208.8125 94.703125 208.261719 97.15625 207.398438 C 100.519531 206.375 99.707031 201.273438 96.164062 201.351562 C 90.558594 201.582031 84.546875 199.453125 80.710938 195.648438 C 78.957031 193.8125 77.429688 191.292969 76.746094 188.871094 C 75.476562 184.644531 76.160156 181.71875 75.769531 177.882812 C 75.496094 171.433594 77.3125 165.824219 80.417969 159.585938 C 80.433594 159.535156 80.449219 159.488281 80.46875 159.4375 C 84.15625 159.84375 87.878906 159.875 91.5 159.632812 L 91.566406 159.632812 C 93.042969 159.503906 93.46875 157.308594 92.085938 156.660156 C 80.679688 150.695312 70.292969 143.691406 61.992188 134.34375 C 50.921875 121.714844 43.742188 106.632812 45.527344 90.675781 C 46.730469 80.726562 52.628906 72.113281 60.054688 65.449219 C 64.71875 61.515625 71.089844 57.128906 77.183594 56.59375 C 78.84375 56.445312 80.449219 56.59375 82.011719 57.082031 C 85.195312 58.511719 87.277344 62.589844 89.210938 66.34375 C 94.605469 77.738281 99.058594 91.4375 105.703125 102.945312 C 110.773438 112.484375 117.5 121.230469 125.398438 128.722656 Z M 125.398438 128.738281 " fill-opacity="1" fill-rule="nonzero"/><g clip-path="url(#432b40f863)"><g clip-path="url(#f837814a80)"><path fill="#fda936" d="M 49.429688 63.957031 C 57.636719 57.375 69.171875 55.976562 69.757812 57.292969 C 70 57.828125 68.328125 58.722656 65.921875 61.078125 C 65.921875 61.078125 61.746094 65.140625 58.089844 72.730469 C 53.6875 81.847656 51.996094 112.828125 69.871094 132.3125 C 74.992188 137.902344 88.1875 152.253906 94.667969 154.742188 C 95.367188 155 98.636719 156.15625 99.136719 158.527344 C 99.367188 159.632812 98.925781 160.65625 98.457031 161.503906 C 96.003906 165.792969 91.957031 166.183594 89.617188 168.621094 C 83.117188 175.414062 89.84375 196.835938 97.285156 198.117188 C 98.894531 198.394531 101.964844 197.957031 103.429688 199.90625 C 104.191406 200.914062 104.371094 202.375 105.753906 203.011719 C 105.753906 203.011719 106.5 203.351562 107.425781 203.238281 C 110.804688 202.832031 113.113281 183.492188 117.972656 165.957031 C 120.703125 156.058594 123.253906 150.351562 124.472656 150.582031 C 124.796875 150.644531 124.945312 151.132812 126.375 156.121094 C 127.203125 159.03125 127.625 160.496094 127.640625 160.558594 C 130.324219 179.265625 127.722656 198.71875 120.214844 216.0625 C 117.792969 221.667969 114.054688 227.683594 108.042969 228.738281 C 106.449219 229.015625 103.152344 229.046875 92.507812 221.523438 C 89.40625 219.3125 81.976562 214.0625 76.925781 208.554688 C 60.722656 190.933594 64.671875 166.378906 47.753906 129.582031 C 40.199219 113.152344 36.28125 104.617188 37.5 90.59375 C 37.921875 85.71875 39.078125 72.261719 49.445312 63.9375 Z M 49.429688 63.957031 " fill-opacity="0.65" fill-rule="nonzero"/></g></g><path fill="#ba6b02" d="M 438.917969 475.839844 L 224.21875 457.199219 L 152.535156 435.808594 L 385.078125 453.214844 Z M 438.917969 475.839844 " fill-opacity="1" fill-rule="nonzero"/><path fill="#fec16f" d="M 705.78125 203.238281 C 711.710938 209.753906 711.566406 217.460938 710.347656 226.398438 C 708.851562 235.921875 702.238281 243.640625 694.308594 249.769531 C 682.949219 258.578125 670.402344 263.226562 656.136719 264.492188 C 652.285156 264.835938 648.285156 264.917969 644.175781 264.800781 C 644.0625 264.800781 643.945312 264.769531 643.832031 264.800781 C 643.035156 264.867188 642.257812 265.324219 641.816406 266.070312 C 641.101562 267.304688 641.527344 268.882812 642.746094 269.597656 C 648.007812 272.683594 653.730469 274.863281 659.726562 276.195312 C 661.902344 284.761719 660.894531 293.082031 655.648438 300.410156 C 649.945312 308.261719 641.347656 315.105469 631.546875 318.597656 C 629.679688 319.265625 620.644531 322.839844 608.863281 323.214844 C 584.097656 323.960938 536.273438 311.171875 506.988281 269.304688 C 501.300781 261.144531 493.679688 248.160156 488.675781 230.007812 C 493.84375 229.679688 497.757812 228.496094 500.894531 227 C 504.617188 225.179688 507.394531 223.015625 509.996094 220.546875 C 522.734375 208.375 527.773438 193.277344 538.613281 182.160156 C 543.226562 177.445312 548.265625 173.351562 553.660156 170.246094 C 559.378906 166.980469 565.507812 164.800781 571.941406 164.234375 C 576.460938 163.828125 581.105469 164.199219 585.933594 165.53125 C 591.847656 166.929688 600.933594 169.074219 608.847656 168.378906 C 610.632812 168.214844 612.390625 167.90625 614.046875 167.417969 C 615.65625 167.027344 618.042969 166.28125 619.507812 165.566406 C 634.066406 159.585938 643.441406 145.085938 647.035156 130.363281 C 649.683594 121.210938 650.691406 112.128906 655.128906 104.976562 C 659.304688 98.507812 666.8125 94.933594 674.578125 94.25 C 677.226562 94.023438 679.925781 94.121094 682.492188 94.558594 C 698.710938 97.46875 706.835938 115.101562 709.679688 130.019531 C 713.515625 148.5 707.582031 164.605469 694.046875 177.964844 C 672.695312 198.898438 642.792969 208.082031 612.859375 211.007812 C 610.164062 211.25 610.128906 215.234375 612.859375 215.542969 C 621.503906 216.289062 630.28125 216.304688 639.039062 215.542969 C 651.617188 214.4375 664.144531 211.671875 676.253906 207.089844 C 683.0625 204.410156 689.691406 201.125 695.996094 197.109375 C 700.074219 198.800781 703.652344 200.945312 705.761719 203.285156 Z M 705.78125 203.238281 " fill-opacity="1" fill-rule="nonzero"/><g clip-path="url(#36b80e835c)"><g clip-path="url(#218703d842)"><path fill="#fda936" d="M 685.273438 93.8125 C 688.894531 97.046875 694.273438 102.71875 697.800781 111.199219 C 705.226562 129.046875 698.875 145.835938 697.132812 150.449219 C 688.390625 173.578125 667.054688 184.890625 657.175781 190.21875 C 632.3125 203.613281 603.792969 205.644531 604.117188 213.703125 C 604.117188 214.015625 604.183594 214.289062 604.183594 214.289062 C 604.929688 217.214844 611.789062 217.785156 614.324219 217.996094 C 623.292969 218.742188 630.652344 219.621094 644.566406 217.769531 C 667.722656 214.695312 687.546875 203.5 692.390625 200.671875 C 693.574219 199.988281 695.101562 199.386719 696.402344 199.921875 C 701.097656 201.839844 701.976562 217.882812 696.453125 229.699219 C 688.34375 247.070312 664.226562 260.039062 649.390625 260.429688 C 646.710938 260.496094 636.570312 260.367188 634.796875 264.949219 C 634.683594 265.242188 634.523438 265.648438 634.539062 266.214844 C 634.734375 271.90625 652.640625 271.660156 655.632812 279.460938 C 657.351562 283.929688 653.484375 289.261719 651.957031 291.375 C 638.082031 310.535156 601.273438 308.683594 593.488281 308.292969 C 582.457031 307.742188 555.007812 306.214844 528.472656 286.011719 C 503.121094 266.71875 492.65625 241.742188 488.660156 229.988281 C 489.585938 242.210938 493.273438 267.386719 511.523438 290.074219 C 546.738281 333.84375 605.5 330.574219 619.375 328.886719 C 658.816406 324.074219 695.152344 301.5 719.496094 270.101562 C 743.820312 238.699219 756.496094 199.046875 758.121094 159.355469 C 758.984375 138.457031 756.644531 116.679688 746.03125 98.652344 C 731.359375 73.707031 697.652344 65.027344 694.273438 69.691406 C 692.859375 71.644531 695.332031 77.558594 713.09375 95.402344 " fill-opacity="0.65" fill-rule="nonzero"/></g></g><path fill="#ff8e06" d="M 531.609375 315.882812 L 511.410156 472.117188 L 406.449219 429.097656 L 459.082031 137.464844 L 522.980469 179.964844 C 521.613281 182.144531 520.332031 184.335938 519.046875 186.464844 C 515.195312 192.871094 511.101562 199.335938 505.804688 204.605469 C 504.257812 206.015625 501.886719 208.210938 500.117188 209.285156 C 493.535156 213.980469 485.441406 216.648438 477.1875 217.378906 C 475.21875 217.558594 473.253906 217.605469 471.289062 217.574219 C 470.589844 217.703125 470.167969 218.386719 470.296875 219.050781 C 475.332031 243.152344 485.117188 266.363281 500.132812 286.304688 C 508.792969 297.84375 519.519531 307.804688 531.609375 315.882812 Z M 531.609375 315.882812 " fill-opacity="1" fill-rule="nonzero"/><g clip-path="url(#71abeccbf9)"><g clip-path="url(#6a6be51763)"><path fill="#000000" d="M 552.847656 174.648438 C 494.28125 152.613281 479.332031 147.296875 479.234375 147.589844 C 479.152344 147.800781 487.441406 149.945312 495.222656 156.691406 C 496.964844 158.1875 516.464844 175.578125 510.46875 194.691406 C 505.378906 210.910156 485.554688 216.792969 474.714844 217.539062 C 473.253906 217.636719 472.035156 217.636719 471.171875 217.621094 C 471.140625 217.621094 471.058594 217.671875 470.945312 217.71875 C 465.890625 218.597656 465.195312 237.269531 464.964844 243.269531 C 463.535156 281.558594 520.265625 410.308594 492.300781 440.296875 C 478.015625 455.605469 445.417969 441.109375 443.597656 448.40625 C 441.417969 457.117188 486.789062 482.699219 535.882812 489.101562 C 548.507812 490.742188 582.421875 493.75 582.421875 493.75 C 615.980469 487.363281 632.878906 472.035156 640.46875 463.503906 C 678.398438 420.9375 672.320312 337.15625 616.53125 262.089844 " fill-opacity="0.15" fill-rule="nonzero"/></g></g><path fill="#fda936" d="M 338.765625 106.992188 C 337.90625 107.105469 337.222656 107.285156 336.734375 107.464844 C 331.890625 109.054688 325.3125 114.628906 316.714844 160.671875 C 315.675781 166.183594 314.941406 170.605469 314.535156 173.023438 C 313.203125 173.527344 311.921875 173.984375 310.585938 174.375 C 304.785156 176.195312 298.804688 177.363281 292.746094 177.902344 C 276.902344 179.296875 260.667969 176.324219 246.546875 168.976562 C 241.296875 157.488281 239.117188 144.242188 239.25 131.90625 C 239.136719 125.941406 240.5 120.707031 243.636719 116.417969 C 245.425781 113.949219 247.84375 111.769531 250.882812 110 C 257.628906 105.804688 266.046875 103.449219 273.960938 102.035156 C 277.289062 101.464844 280.671875 101.027344 284.019531 100.734375 C 291.414062 100.085938 298.871094 100.035156 306.378906 100.457031 C 311.464844 100.734375 315.464844 100.960938 320.875 101.921875 C 328.398438 103.269531 334.476562 105.285156 338.765625 106.992188 Z M 338.765625 106.992188 " fill-opacity="1" fill-rule="nonzero"/><path fill="#ff8e06" d="M 429.132812 126.429688 L 375.71875 422.238281 L 98.503906 405.433594 L 152.441406 120.921875 L 217.082031 122.203125 C 215.246094 129.339844 214.9375 136.667969 214.839844 143.625 C 214.808594 148.335938 215.101562 153.050781 215.785156 157.714844 C 217.097656 167.09375 219.796875 176.226562 223.695312 184.855469 C 224.703125 187.132812 226.542969 189.164062 228.765625 190.546875 C 247.488281 203.207031 270.285156 208.765625 292.453125 206.796875 C 306.816406 205.53125 320.90625 201.109375 333.46875 193.453125 C 336.652344 191.519531 338.894531 188.109375 339.15625 184.078125 C 339.546875 177.316406 339.804688 170.523438 339.9375 163.679688 C 340.082031 156.855469 340.113281 149.964844 340.375 143.105469 C 340.652344 136.914062 340.75 130.589844 342.308594 124.707031 Z M 429.132812 126.429688 " fill-opacity="1" fill-rule="nonzero"/><g clip-path="url(#2878ff4800)"><g clip-path="url(#926e8b3613)"><path fill="#ba6b02" d="M 368.242188 123.925781 C 364.71875 123.699219 359.386719 123.960938 355.113281 127.273438 C 350.921875 130.523438 349.441406 135.367188 347.867188 146.011719 C 342.925781 179.589844 343.382812 185.003906 338.457031 190.59375 C 334.558594 195.015625 330.054688 196.605469 321.085938 199.761719 C 316.160156 201.5 303.160156 206.015625 286.960938 202.734375 C 277.695312 200.867188 269.605469 198.929688 263.429688 191.648438 C 257.578125 184.742188 256.3125 174.746094 258.539062 165.972656 C 260.765625 157.195312 266.09375 149.507812 272.1875 142.8125 C 298.515625 113.898438 341.804688 101.726562 379.328125 112.695312 C 373.851562 114.839844 368.390625 116.988281 362.914062 119.132812 " fill-opacity="1" fill-rule="nonzero"/></g></g></svg>